<?xml version="1.0" standalone="no"?>
<!DOCTYPE svg PUBLIC "-//W3C//DTD SVG 20010904//EN"
 "http://www.w3.org/TR/2001/REC-SVG-20010904/DTD/svg10.dtd">
<svg version="1.0" xmlns="http://www.w3.org/2000/svg"
 width="279.000000pt" height="249.000000pt" viewBox="0 0 279.000000 249.000000"
 preserveAspectRatio="xMidYMid meet">

<g transform="translate(0.000000,249.000000) scale(0.100000,-0.100000)"
fill="#000000" stroke="none">
<path d="M1653 2266 c-23 -12 -42 -25 -43 -30 0 -5 3 -6 7 -3 3 4 12 2 18 -3
8 -7 21 -5 41 5 16 8 35 15 42 15 15 0 16 12 0 28 -14 14 -12 15 -65 -12z"/>
<path d="M1310 2135 c1 -26 2 -28 11 -12 8 14 8 22 0 30 -8 8 -11 3 -11 -18z"/>
<path d="M1404 2153 c4 -6 -3 -15 -15 -18 -12 -4 -18 -12 -15 -21 3 -7 0 -13
-6 -11 -7 1 -12 -3 -13 -10 0 -18 -15 -28 -15 -11 0 11 -6 14 -19 11 -12 -3
-28 4 -41 17 -12 12 -25 19 -28 15 -4 -3 0 -10 7 -14 7 -5 11 -14 7 -20 -4 -5
2 -19 14 -31 11 -11 20 -25 20 -30 0 -6 14 -13 30 -16 29 -6 43 -24 18 -24 -8
0 -9 -3 -2 -10 13 -13 54 -1 54 16 0 8 4 14 9 14 5 0 8 -15 7 -32 -1 -31 1
-33 32 -30 34 2 40 -6 20 -26 -9 -9 -8 -16 5 -30 13 -12 20 -14 25 -5 8 13 29
13 50 0 18 -12 15 14 -5 43 -11 15 -13 25 -6 27 6 2 0 15 -13 28 -24 24 -32
55 -14 55 16 0 11 18 -11 39 -12 11 -18 24 -15 29 3 6 2 21 -3 34 l-10 23 0
-22 c-1 -22 -21 -34 -21 -12 0 6 -6 9 -12 6 -7 -2 -19 3 -26 12 -8 9 -11 11
-8 4z m-2 -85 c-11 -11 -32 -3 -32 12 0 4 9 6 21 3 13 -4 17 -9 11 -15z m93 2
c7 -12 -2 -12 -30 0 -19 8 -19 9 2 9 12 1 25 -3 28 -9z m-100 -30 c3 -6 -1 -7
-9 -4 -18 7 -21 14 -7 14 6 0 13 -4 16 -10z"/>
<path d="M1165 2057 c21 -51 18 -67 -6 -37 -15 17 -19 19 -15 7 3 -11 2 -16
-4 -12 -6 3 -10 1 -10 -5 0 -7 -7 -9 -16 -6 -14 5 -15 4 -5 -8 10 -11 9 -16
-4 -23 -13 -8 -12 -12 9 -32 21 -20 24 -20 23 -5 -1 10 4 19 11 19 8 0 19 8
26 17 10 14 15 15 26 5 10 -10 12 -8 8 9 -5 21 -4 21 28 8 39 -16 74 -18 74
-4 0 6 -6 10 -14 10 -8 0 -18 9 -21 21 -4 12 -12 18 -21 15 -7 -3 -23 7 -35
22 -12 15 -19 19 -16 10 9 -24 -2 -23 -30 4 l-24 22 16 -37z"/>
<path d="M1090 2041 c0 -12 28 -22 35 -12 3 5 -2 12 -11 15 -21 8 -24 8 -24
-3z"/>
<path d="M1024 2021 c3 -5 17 -11 31 -13 20 -4 23 -3 14 8 -12 15 -54 20 -45
5z"/>
<path d="M1682 1992 c-1 -24 0 -25 9 -9 7 11 7 23 2 28 -5 5 -9 -3 -11 -19z"/>
<path d="M1002 1997 c-10 -11 -9 -17 3 -27 20 -17 27 -8 17 19 -7 19 -10 21
-20 8z"/>
<path d="M1038 1993 c7 -3 16 -2 19 1 4 3 -2 6 -13 5 -11 0 -14 -3 -6 -6z"/>
<path d="M1070 1937 c0 -8 7 -17 15 -21 8 -3 15 -2 15 3 0 5 -7 14 -15 21 -12
10 -15 10 -15 -3z"/>
<path d="M1030 1930 c8 -5 20 -10 25 -10 6 0 3 5 -5 10 -8 5 -19 10 -25 10 -5
0 -3 -5 5 -10z"/>
<path d="M976 1911 c-4 -7 -5 -15 -2 -18 9 -9 19 4 14 18 -4 11 -6 11 -12 0z"/>
<path d="M1846 1903 c-3 -3 -2 -18 1 -34 l6 -29 -29 15 c-16 8 -36 15 -45 15
-9 0 -22 7 -29 15 -7 9 -16 12 -19 8 -12 -17 -51 -33 -51 -22 0 6 -6 9 -14 6
-7 -3 -19 0 -26 6 -10 10 -12 8 -7 -6 6 -15 3 -17 -14 -12 -18 6 -20 4 -14
-17 l6 -23 -20 25 c-11 14 -21 19 -21 12 0 -14 -41 -9 -110 14 l-45 16 -93
-99 c-101 -106 -112 -124 -132 -196 -12 -45 -12 -49 8 -63 12 -8 33 -35 48
-59 19 -34 34 -47 62 -55 53 -14 66 -13 94 13 14 12 37 31 51 42 26 20 26 21
13 70 -12 45 -13 83 -3 220 2 36 5 40 40 48 20 5 37 13 37 17 0 4 9 10 20 13
13 3 20 0 20 -8 0 -15 52 -58 82 -68 27 -9 70 -106 64 -142 -6 -34 -1 -44 34
-68 32 -22 34 -22 75 14 38 34 47 77 20 99 -14 12 -13 15 5 35 17 18 20 30 14
64 -8 47 1 51 41 19 37 -29 65 -98 66 -166 l1 -57 20 60 c26 81 20 144 -18
191 -29 35 -127 97 -138 87z"/>
<path d="M991 1884 c-16 -19 -14 -21 29 -26 27 -2 35 1 38 16 3 15 0 18 -17
13 -12 -3 -21 -1 -21 4 0 13 -13 10 -29 -7z"/>
<path d="M990 1830 c0 -5 9 -14 20 -20 22 -12 27 -1 8 18 -14 14 -28 16 -28 2z"/>
<path d="M930 1790 c0 -5 5 -10 10 -10 6 0 10 5 10 10 0 6 -4 10 -10 10 -5 0
-10 -4 -10 -10z"/>
<path d="M964 1791 c4 -7 2 -19 -6 -28 -12 -15 -11 -15 10 -4 24 13 25 32 2
39 -8 3 -10 0 -6 -7z"/>
<path d="M918 1713 c7 -3 16 -2 19 1 4 3 -2 6 -13 5 -11 0 -14 -3 -6 -6z"/>
<path d="M864 1671 c-10 -24 -12 -51 -3 -57 5 -3 6 -25 4 -49 -3 -25 -1 -45 3
-45 18 1 32 18 27 32 -4 9 -2 19 4 23 6 3 11 22 11 41 0 20 4 43 9 52 7 14 4
17 -20 18 -17 1 -31 -5 -35 -15z"/>
<path d="M1950 1521 c0 -6 5 -13 10 -16 6 -3 10 1 10 9 0 9 -4 16 -10 16 -5 0
-10 -4 -10 -9z"/>
<path d="M805 1504 c19 -14 19 -16 3 -25 -10 -6 -18 -16 -18 -23 0 -8 -7 -16
-15 -20 -8 -3 -12 -11 -9 -19 3 -8 -2 -20 -10 -27 -9 -7 -13 -16 -10 -21 3 -5
-1 -6 -9 -3 -20 7 -31 -14 -17 -31 8 -10 9 -15 2 -15 -6 0 -14 5 -17 10 -7 12
-55 14 -55 2 0 -5 9 -18 20 -30 25 -26 19 -28 -17 -5 -26 17 -26 17 -21 -5 5
-19 3 -22 -13 -17 -20 7 -27 -9 -9 -20 16 -10 1 -25 -18 -18 -14 5 -15 3 -4
-8 14 -16 16 -33 2 -24 -6 3 -13 -2 -16 -12 -3 -10 -10 -28 -16 -40 -6 -11 -7
-26 -4 -32 4 -6 2 -11 -4 -11 -7 0 -10 -7 -6 -15 3 -10 -1 -15 -13 -15 -22 0
-35 -38 -19 -57 8 -10 7 -12 -4 -8 -11 4 -17 -6 -25 -40 -8 -35 -7 -45 3 -45
7 0 15 6 17 13 3 7 6 5 6 -5 1 -10 -14 -34 -31 -55 -18 -21 -25 -32 -15 -24 9
8 20 11 24 8 7 -8 -24 -57 -37 -57 -6 0 -10 -7 -10 -15 0 -8 5 -15 11 -15 7 0
5 -10 -5 -25 -9 -14 -13 -31 -9 -38 4 -6 6 -24 4 -39 -3 -35 12 -36 44 -3 14
13 25 18 25 12 0 -7 -5 -18 -11 -24 -7 -7 -12 -20 -14 -30 -1 -10 -6 -29 -12
-43 -15 -36 -26 -110 -16 -110 17 1 42 27 48 52 9 36 59 82 80 74 11 -4 15 -2
12 6 -2 7 -10 12 -17 10 -8 -2 -10 5 -6 22 3 13 2 26 -3 28 -5 2 -1 14 10 27
l19 23 0 -22 c0 -16 4 -20 15 -16 13 5 14 2 1 -22 -10 -19 -11 -32 -3 -43 7
-12 4 -24 -13 -47 -13 -17 -23 -44 -23 -60 0 -21 -8 -33 -29 -45 -16 -9 -31
-24 -35 -34 -4 -10 -12 -22 -20 -26 -7 -4 -13 -16 -13 -25 0 -10 -10 -22 -22
-27 -15 -6 -23 -19 -24 -35 0 -14 -3 -30 -6 -35 -3 -6 -3 -30 1 -55 6 -40 8
-43 18 -25 20 32 15 8 -7 -37 -25 -53 -26 -72 -1 -34 l20 29 -6 -40 c-3 -22
-1 -48 4 -57 7 -14 10 -13 21 5 8 12 9 18 4 15 -17 -10 -20 17 -5 47 17 34 27
35 20 0 l-5 -27 19 25 c11 14 19 18 19 10 0 -8 7 -11 20 -8 23 6 26 -11 9 -46
-10 -22 -10 -22 6 -2 9 11 19 20 23 20 20 1 59 39 70 68 8 22 19 33 33 34 12
1 19 -3 16 -10 -2 -7 -11 -11 -21 -9 -19 3 -23 -33 -4 -44 8 -5 9 -2 4 11 -7
18 -6 18 14 0 19 -17 19 -19 4 -37 -13 -14 -20 -15 -31 -6 -8 6 -13 7 -12 2 2
-10 -15 -59 -30 -85 -8 -13 -5 -18 12 -23 38 -10 87 -7 89 7 0 6 2 17 3 22 2
6 3 16 4 23 0 6 5 12 11 12 5 0 7 -16 5 -35 l-5 -35 929 0 929 0 -10 38 c-6
20 -13 42 -16 47 -4 6 -8 17 -9 26 -1 9 -11 36 -22 62 -11 25 -17 48 -14 51
12 12 10 66 -2 76 -7 6 -11 19 -8 30 3 10 -2 33 -11 51 -9 18 -16 38 -16 46 0
21 -90 113 -111 113 -11 0 -19 5 -19 10 0 6 -4 10 -10 10 -5 0 -10 -7 -10 -15
0 -8 -7 -15 -16 -15 -14 0 -14 -3 -4 -15 10 -12 10 -15 -1 -15 -8 0 -5 -6 7
-16 18 -14 17 -14 -6 -2 -14 7 -28 11 -31 11 -10 -3 -5 31 6 39 6 5 5 11 -4
17 -8 5 -11 16 -7 29 4 13 0 26 -11 38 -10 10 -18 22 -18 28 0 6 -9 9 -20 8
-16 -3 -17 -2 -6 12 9 10 22 14 37 10 40 -10 29 21 -13 39 -34 13 -35 15 -13
16 15 1 31 -4 37 -10 8 -8 13 -8 17 0 4 6 3 11 -2 11 -6 0 -3 22 6 48 17 50
33 61 112 79 14 3 32 11 40 18 8 6 23 15 33 18 9 4 17 12 17 20 0 8 17 13 51
15 64 3 167 50 203 93 24 28 26 38 26 124 0 69 -4 97 -15 108 -23 24 -113 46
-197 49 -64 3 -79 0 -90 -14 -7 -10 -16 -18 -21 -18 -5 0 -17 -10 -28 -22 -10
-13 -18 -17 -19 -10 0 6 6 12 13 12 8 0 7 3 -3 10 -12 8 -12 10 2 15 10 4 14
13 11 22 -5 12 -7 12 -14 1 -7 -11 -9 -11 -9 1 0 9 -8 12 -25 9 -14 -3 -25 -1
-25 3 0 5 -9 9 -20 9 -11 0 -20 5 -20 11 0 6 -9 8 -20 4 -11 -4 -20 -2 -20 4
0 12 -42 15 -53 5 -3 -3 -33 -7 -67 -8 -47 -2 -68 2 -86 16 -18 15 -30 17 -61
10 -21 -5 -58 -7 -82 -5 -28 2 -50 -2 -60 -11 -19 -16 -217 -50 -281 -48 -25
1 -85 6 -135 12 -188 24 -184 24 -211 -1 -20 -19 -27 -21 -34 -10 -4 8 -15 11
-24 8 -9 -4 -16 -2 -16 3 0 6 -11 10 -24 10 -13 0 -29 7 -36 15 -7 8 -19 15
-26 15 -8 0 -14 4 -14 9 0 5 -21 19 -47 31 -27 12 -56 29 -65 37 -9 8 -33 15
-52 15 -30 0 -37 5 -51 34 -9 19 -20 32 -25 29 -5 -3 -11 -1 -15 5 -3 5 -14
10 -23 10 -15 -1 -14 -3 3 -16z m-68 -220 c-3 -3 -12 -4 -19 -1 -8 3 -5 6 6 6
11 1 17 -2 13 -5z m83 -11 c-1 -5 -7 -19 -15 -33 -8 -14 -14 -28 -15 -32 0 -7
70 10 85 22 6 4 34 10 64 13 30 4 57 11 61 17 4 6 14 3 25 -10 16 -18 17 -23
5 -31 -8 -5 -24 -7 -34 -5 -11 3 -39 -4 -63 -15 -36 -16 -43 -24 -38 -39 5
-15 3 -18 -9 -14 -8 3 -12 12 -9 20 3 8 0 14 -6 14 -6 0 -11 -3 -11 -8 0 -4
-10 -12 -22 -17 -13 -6 -23 -19 -23 -30 0 -11 -7 -23 -15 -27 -13 -6 -13 -7 1
-7 21 -1 20 -62 0 -69 -8 -3 -11 0 -7 6 11 17 -13 24 -29 9 -12 -13 -13 -17 0
-27 12 -10 10 -15 -13 -36 -15 -13 -21 -24 -14 -24 7 0 22 9 34 20 31 28 38
25 38 -16 0 -30 -3 -34 -19 -29 -11 3 -24 -1 -32 -12 -12 -15 -12 -16 4 -10
14 5 17 1 15 -26 -2 -35 -16 -60 -29 -52 -4 3 -6 12 -3 19 3 7 -2 21 -11 30
-12 11 -15 25 -11 42 6 23 4 25 -16 19 -16 -4 -19 -3 -10 3 11 8 11 18 -2 61
-12 42 -13 51 -1 51 8 0 11 7 8 20 -6 23 -19 26 -26 8 -2 -7 -8 -10 -11 -6 -4
3 2 16 13 27 12 12 21 25 21 30 0 5 14 14 31 21 20 9 26 16 18 20 -8 5 -4 10
11 15 12 4 18 10 13 14 -7 4 -7 15 -2 29 5 14 13 20 21 16 7 -5 9 -2 5 8 -6
17 0 28 15 28 4 0 8 -3 8 -7z m117 1 c-3 -3 -12 -4 -19 -1 -8 3 -5 6 6 6 11 1
17 -2 13 -5z m202 -43 c24 -21 21 -41 -7 -41 -13 0 -14 2 -4 9 11 7 11 11 -2
24 -30 30 -19 36 13 8z m1306 -21 c3 -5 -1 -10 -9 -10 -9 0 -16 5 -16 10 0 6
4 10 9 10 6 0 13 -4 16 -10z m-1263 -32 c-7 -7 -12 -8 -12 -2 0 14 12 26 19
19 2 -3 -1 -11 -7 -17z m-212 -8 c0 -5 -5 -10 -11 -10 -5 0 -7 5 -4 10 3 6 8
10 11 10 2 0 4 -4 4 -10z m285 -75 c31 -63 27 -81 -10 -41 -29 32 -31 38 -9
29 15 -5 15 -4 -1 20 -11 17 -22 24 -33 20 -15 -6 -15 -5 -3 10 7 9 17 17 21
17 4 0 19 -25 35 -55z m1180 24 c6 -6 1 -8 -13 -6 -12 2 -28 9 -35 16 -10 11
-7 12 13 6 14 -4 29 -11 35 -16z m-20 -27 c14 -10 18 -42 6 -42 -9 0 -31 31
-31 44 0 8 13 7 25 -2z m-610 -22 c3 -5 2 -10 -4 -10 -5 0 -13 5 -16 10 -3 6
-2 10 4 10 5 0 13 -4 16 -10z m252 -16 c-3 -3 -12 -4 -19 -1 -8 3 -5 6 6 6 11
1 17 -2 13 -5z m351 -32 c2 -8 -3 -10 -13 -6 -9 4 -13 9 -11 12 3 3 -2 12 -12
20 -15 12 -14 12 7 0 14 -8 27 -20 29 -26z m-1819 -58 c1 -1 0 -7 -4 -13 -10
-18 -32 -12 -38 9 -4 18 -2 20 16 14 12 -3 24 -8 26 -10z m912 -11 c13 -16 12
-17 -3 -4 -17 13 -22 21 -14 21 2 0 10 -8 17 -17z m124 -3 c3 -6 -1 -7 -9 -4
-18 7 -21 14 -7 14 6 0 13 -4 16 -10z m315 -8 c0 -5 11 -15 25 -22 18 -10 22
-17 15 -24 -8 -8 -14 -6 -20 4 -5 8 -10 11 -10 6 0 -5 7 -18 17 -28 24 -26 10
-22 -20 6 -16 15 -23 28 -16 31 7 5 6 11 -2 21 -8 10 -8 14 0 14 6 0 11 -4 11
-8z m-85 -12 c3 -5 2 -10 -4 -10 -5 0 -13 5 -16 10 -3 6 -2 10 4 10 5 0 13 -4
16 -10z m-1191 -9 c4 -5 -3 -7 -14 -4 -23 6 -26 13 -6 13 8 0 17 -4 20 -9z
m1531 -48 l27 -28 -23 -6 c-28 -7 -47 0 -29 11 16 10 -33 22 -54 14 -19 -7
-21 2 -3 21 19 22 52 17 82 -12z m-1609 5 c4 -7 4 -10 -1 -6 -4 4 -17 3 -29
-3 -20 -10 -20 -10 -2 5 24 19 23 19 32 4z m1109 2 c3 -6 -1 -7 -9 -4 -18 7
-21 14 -7 14 6 0 13 -4 16 -10z m136 -7 c13 -16 12 -17 -3 -4 -17 13 -22 21
-14 21 2 0 10 -8 17 -17z m129 -40 c0 -19 4 -24 16 -19 17 6 92 -11 108 -26
16 -13 -3 -22 -19 -8 -13 11 -14 10 -9 -4 3 -9 1 -16 -5 -16 -6 0 -11 5 -11
12 0 6 -3 8 -6 5 -4 -4 1 -19 11 -34 18 -28 18 -28 -2 -10 -11 9 -26 17 -34
17 -11 -1 -10 -4 4 -14 20 -15 23 -36 5 -36 -7 0 -4 -6 7 -12 29 -16 29 -16
16 -32 -8 -10 -9 -16 -1 -21 21 -13 9 -25 -25 -25 -19 0 -35 3 -35 8 0 4 -14
8 -31 9 -38 3 -48 11 -29 23 11 7 12 12 3 21 -6 6 -9 17 -7 24 6 14 -22 28
-37 19 -13 -8 -11 -38 3 -52 16 -16 -3 -15 -24 2 -19 14 -25 32 -8 21 16 -10
12 11 -5 25 -18 15 -20 36 -4 46 17 10 30 -18 16 -35 -10 -12 -9 -13 9 -3 11
6 35 9 52 7 37 -5 42 7 10 23 -22 10 -22 11 -3 12 20 1 20 1 1 15 -26 20 -16
27 22 15 38 -10 34 6 -5 21 -14 5 -21 14 -17 20 3 6 1 15 -6 19 -7 5 -2 8 14
8 21 0 26 -5 26 -25z m170 7 c0 -5 -2 -10 -4 -10 -3 0 -8 5 -11 10 -3 6 -1 10
4 10 6 0 11 -4 11 -10z m-401 -49 c0 -10 -2 -12 -6 -3 -2 6 -8 10 -12 8 -4 -3
-7 4 -7 14 0 14 3 16 13 8 7 -6 13 -18 12 -27z m-917 17 c7 -18 -2 -39 -13
-32 -12 7 -12 44 0 44 5 0 11 -6 13 -12z m843 -8 c3 -5 1 -10 -4 -10 -6 0 -11
5 -11 10 0 6 2 10 4 10 3 0 8 -4 11 -10z m193 -2 c7 -7 12 -16 12 -20 0 -15
-15 -8 -28 12 -13 22 -3 27 16 8z m326 -10 c-7 -11 -32 -10 -39 2 -3 6 4 9 19
8 13 -1 22 -6 20 -10z m60 -19 c26 -12 26 -29 0 -29 -8 0 -14 6 -14 14 0 8 -6
17 -12 19 -7 3 -10 6 -6 6 4 1 18 -4 32 -10z m-1380 -15 c3 -8 2 -12 -4 -9 -6
3 -10 10 -10 16 0 14 7 11 14 -7z m876 -13 c0 -3 -5 -13 -10 -21 -9 -13 -10
-13 -10 0 0 13 -2 13 -9 1 -7 -10 -9 -7 -8 11 2 18 7 24 20 20 9 -2 17 -7 17
-11z m32 -23 c-9 -9 -15 -9 -24 1 -11 11 -10 13 5 8 10 -4 17 -2 17 5 0 6 3 8
7 5 4 -4 1 -13 -5 -19z m-1091 -41 c-5 -14 -15 -28 -21 -32 -5 -3 -3 10 7 29
19 40 29 42 14 3z m1569 23 c0 -5 -5 -10 -11 -10 -5 0 -7 5 -4 10 3 6 8 10 11
10 2 0 4 -4 4 -10z m-33 -16 c-3 -3 -12 -4 -19 -1 -8 3 -5 6 6 6 11 1 17 -2
13 -5z m-294 -70 c22 -22 32 -25 60 -20 19 4 44 3 56 -2 20 -7 20 -9 5 -30
-10 -14 -22 -21 -31 -17 -13 5 -14 3 -3 -10 11 -13 15 -13 21 -3 10 16 12 -2
3 -26 -5 -13 -13 -11 -49 14 -24 17 -51 30 -60 30 -9 0 -14 4 -11 9 3 4 -4 17
-15 27 -12 10 -25 27 -30 36 -15 29 24 23 54 -8z m-1412 -17 c-10 -9 -11 -8
-5 6 3 10 9 15 12 12 3 -3 0 -11 -7 -18z m161 -119 c-7 -7 -12 -8 -12 -2 0 14
12 26 19 19 2 -3 -1 -11 -7 -17z m1341 -15 c-7 -2 -19 -2 -25 0 -7 3 -2 5 12
5 14 0 19 -2 13 -5z m-1443 -133 c0 -5 -7 -10 -16 -10 -8 0 -12 5 -9 10 3 6
10 10 16 10 5 0 9 -4 9 -10z m1296 -27 c-7 -7 -26 7 -26 19 0 6 6 6 15 -2 9
-7 13 -15 11 -17z m-1236 -14 c-7 -11 -14 -18 -17 -15 -3 3 0 12 7 21 18 21
23 19 10 -6z m-56 -37 c-1 -2 -10 -5 -19 -6 -9 -1 -21 -9 -27 -17 -5 -8 -8 -9
-6 -4 3 6 10 25 17 43 l13 33 13 -23 c6 -13 11 -24 9 -26z m46 -13 c0 -5 -4
-9 -10 -9 -5 0 -10 7 -10 16 0 8 5 12 10 9 6 -3 10 -10 10 -16z m950 -13 c0
-3 -4 -8 -10 -11 -5 -3 -10 -1 -10 4 0 6 5 11 10 11 6 0 10 -2 10 -4z m-1053
-38 c-3 -8 -6 -5 -6 6 -1 11 2 17 5 13 3 -3 4 -12 1 -19z m123 -33 c0 -8 -4
-15 -10 -15 -5 0 -10 7 -10 15 0 8 5 15 10 15 6 0 10 -7 10 -15z"/>
<path d="M1950 565 c0 -8 4 -15 10 -15 5 0 7 7 4 15 -4 8 -8 15 -10 15 -2 0
-4 -7 -4 -15z"/>
<path d="M422 616 c-8 -19 -8 -27 3 -36 10 -8 15 -8 20 1 4 6 2 14 -4 18 -6 4
-9 15 -5 24 10 26 -1 20 -14 -7z"/>
<path d="M545 553 c-3 -14 -15 -38 -26 -51 -10 -14 -19 -29 -19 -34 0 -15 46
36 52 57 3 11 9 28 13 38 4 9 3 17 -3 17 -5 0 -13 -12 -17 -27z"/>
<path d="M407 502 c-3 -9 -8 -26 -12 -37 l-7 -20 13 20 c7 11 19 25 27 31 13
9 13 12 -1 17 -9 3 -17 -1 -20 -11z"/>
<path d="M454 454 c3 -8 2 -12 -3 -9 -13 7 -23 -10 -25 -45 -2 -34 13 -30 43
11 18 24 20 33 11 45 -16 19 -34 18 -26 -2z"/>
<path d="M115 410 c-8 -3 -32 -22 -54 -43 -23 -21 -45 -36 -51 -32 -7 4 -10
-51 -10 -164 l0 -171 205 0 c113 0 205 2 205 4 0 2 -9 25 -20 51 -11 26 -18
51 -15 55 7 12 -13 142 -37 232 l-20 77 -94 -2 c-52 -1 -101 -4 -109 -7z"/>
<path d="M520 105 c0 -9 5 -15 11 -13 6 2 11 8 11 13 0 5 -5 11 -11 13 -6 2
-11 -4 -11 -13z"/>
<path d="M615 100 c-3 -5 1 -10 9 -10 9 0 16 5 16 10 0 6 -4 10 -9 10 -6 0
-13 -4 -16 -10z"/>
<path d="M590 69 c0 -5 5 -7 10 -4 6 3 10 8 10 11 0 2 -4 4 -10 4 -5 0 -10 -5
-10 -11z"/>
<path d="M541 37 c-21 -21 -12 -36 22 -34 28 2 33 5 29 22 -4 23 -33 30 -51
12z"/>
<path d="M505 10 c-3 -5 -1 -10 4 -10 6 0 11 5 11 10 0 6 -2 10 -4 10 -3 0 -8
-4 -11 -10z"/>
</g>
</svg>
